<?xml version="1.0" encoding="utf-8" standalone="no"?>
<!DOCTYPE svg PUBLIC "-//W3C//DTD SVG 1.1//EN"
  "http://www.w3.org/Graphics/SVG/1.1/DTD/svg11.dtd">
<svg xmlns:xlink="http://www.w3.org/1999/xlink" width="792pt" height="360pt" viewBox="0 0 792 360" xmlns="http://www.w3.org/2000/svg" version="1.1">
 <metadata>
  <rdf:RDF xmlns:dc="http://purl.org/dc/elements/1.1/" xmlns:cc="http://creativecommons.org/ns#" xmlns:rdf="http://www.w3.org/1999/02/22-rdf-syntax-ns#">
   <cc:Work>
    <dc:type rdf:resource="http://purl.org/dc/dcmitype/StillImage"/>
    <dc:date>2024-03-20T20:17:25.784762</dc:date>
    <dc:format>image/svg+xml</dc:format>
    <dc:creator>
     <cc:Agent>
      <dc:title>Matplotlib v3.8.3, https://matplotlib.org/</dc:title>
     </cc:Agent>
    </dc:creator>
   </cc:Work>
  </rdf:RDF>
 </metadata>
 <defs>
  <style type="text/css">*{stroke-linejoin: round; stroke-linecap: butt}</style>
 </defs>
 <g id="figure_1">
  <g id="patch_1">
   <path d="M 0 360 
L 792 360 
L 792 0 
L 0 0 
z
" style="fill: #ffffff"/>
  </g>
  <g id="axes_1">
   <g id="patch_2">
    <path d="M 99 320.4 
L 712.8 320.4 
L 712.8 43.2 
L 99 43.2 
z
" style="fill: #ffffff"/>
   </g>
   <g id="matplotlib.axis_1">
    <g id="xtick_1">
     <g id="line2d_1">
      <path d="M 126.9 320.4 
L 126.9 43.2 
" clip-path="url(#pfd73ce5990)" style="fill: none; stroke: #b0b0b0; stroke-width: 0.5; stroke-linecap: square"/>
     </g>
     <g id="line2d_2">
      <defs>
       <path id="m1927bfe143" d="M 0 0 
L 0 3.5 
" style="stroke: #000000; stroke-width: 0.8"/>
      </defs>
      <g>
       <use xlink:href="#m1927bfe143" x="126.9" y="320.4" style="stroke: #000000; stroke-width: 0.8"/>
      </g>
     </g>
     <g id="text_1">
      <!-- 0 -->
      <g transform="translate(123.71875 334.998438) scale(0.1 -0.1)">
       <defs>
        <path id="DejaVuSans-30" d="M 2034 4250 
Q 1547 4250 1301 3770 
Q 1056 3291 1056 2328 
Q 1056 1369 1301 889 
Q 1547 409 2034 409 
Q 2525 409 2770 889 
Q 3016 1369 3016 2328 
Q 3016 3291 2770 3770 
Q 2525 4250 2034 4250 
z
M 2034 4750 
Q 2819 4750 3233 4129 
Q 3647 3509 3647 2328 
Q 3647 1150 3233 529 
Q 2819 -91 2034 -91 
Q 1250 -91 836 529 
Q 422 1150 422 2328 
Q 422 3509 836 4129 
Q 1250 4750 2034 4750 
z
" transform="scale(0.015625)"/>
       </defs>
       <use xlink:href="#DejaVuSans-30"/>
      </g>
     </g>
    </g>
    <g id="xtick_2">
     <g id="line2d_3">
      <path d="M 154.523762 320.4 
L 154.523762 43.2 
" clip-path="url(#pfd73ce5990)" style="fill: none; stroke: #b0b0b0; stroke-width: 0.5; stroke-linecap: square"/>
     </g>
     <g id="line2d_4">
      <g>
       <use xlink:href="#m1927bfe143" x="154.523762" y="320.4" style="stroke: #000000; stroke-width: 0.8"/>
      </g>
     </g>
     <g id="text_2">
      <!-- 5 -->
      <g transform="translate(151.342512 334.998438) scale(0.1 -0.1)">
       <defs>
        <path id="DejaVuSans-35" d="M 691 4666 
L 3169 4666 
L 3169 4134 
L 1269 4134 
L 1269 2991 
Q 1406 3038 1543 3061 
Q 1681 3084 1819 3084 
Q 2600 3084 3056 2656 
Q 3513 2228 3513 1497 
Q 3513 744 3044 326 
Q 2575 -91 1722 -91 
Q 1428 -91 1123 -41 
Q 819 9 494 109 
L 494 744 
Q 775 591 1075 516 
Q 1375 441 1709 441 
Q 2250 441 2565 725 
Q 2881 1009 2881 1497 
Q 2881 1984 2565 2268 
Q 2250 2553 1709 2553 
Q 1456 2553 1204 2497 
Q 953 2441 691 2322 
L 691 4666 
z
" transform="scale(0.015625)"/>
       </defs>
       <use xlink:href="#DejaVuSans-35"/>
      </g>
     </g>
    </g>
    <g id="xtick_3">
     <g id="line2d_5">
      <path d="M 182.147525 320.4 
L 182.147525 43.2 
" clip-path="url(#pfd73ce5990)" style="fill: none; stroke: #b0b0b0; stroke-width: 0.5; stroke-linecap: square"/>
     </g>
     <g id="line2d_6">
      <g>
       <use xlink:href="#m1927bfe143" x="182.147525" y="320.4" style="stroke: #000000; stroke-width: 0.8"/>
      </g>
     </g>
     <g id="text_3">
      <!-- 10 -->
      <g transform="translate(175.785025 334.998438) scale(0.1 -0.1)">
       <defs>
        <path id="DejaVuSans-31" d="M 794 531 
L 1825 531 
L 1825 4091 
L 703 3866 
L 703 4441 
L 1819 4666 
L 2450 4666 
L 2450 531 
L 3481 531 
L 3481 0 
L 794 0 
L 794 531 
z
" transform="scale(0.015625)"/>
       </defs>
       <use xlink:href="#DejaVuSans-31"/>
       <use xlink:href="#DejaVuSans-30" x="63.623047"/>
      </g>
     </g>
    </g>
    <g id="xtick_4">
     <g id="line2d_7">
      <path d="M 209.771287 320.4 
L 209.771287 43.2 
" clip-path="url(#pfd73ce5990)" style="fill: none; stroke: #b0b0b0; stroke-width: 0.5; stroke-linecap: square"/>
     </g>
     <g id="line2d_8">
      <g>
       <use xlink:href="#m1927bfe143" x="209.771287" y="320.4" style="stroke: #000000; stroke-width: 0.8"/>
      </g>
     </g>
     <g id="text_4">
      <!-- 15 -->
      <g transform="translate(203.408787 334.998438) scale(0.1 -0.1)">
       <use xlink:href="#DejaVuSans-31"/>
       <use xlink:href="#DejaVuSans-35" x="63.623047"/>
      </g>
     </g>
    </g>
    <g id="xtick_5">
     <g id="line2d_9">
      <path d="M 237.39505 320.4 
L 237.39505 43.2 
" clip-path="url(#pfd73ce5990)" style="fill: none; stroke: #b0b0b0; stroke-width: 0.5; stroke-linecap: square"/>
     </g>
     <g id="line2d_10">
      <g>
       <use xlink:href="#m1927bfe143" x="237.39505" y="320.4" style="stroke: #000000; stroke-width: 0.8"/>
      </g>
     </g>
     <g id="text_5">
      <!-- 20 -->
      <g transform="translate(231.03255 334.998438) scale(0.1 -0.1)">
       <defs>
        <path id="DejaVuSans-32" d="M 1228 531 
L 3431 531 
L 3431 0 
L 469 0 
L 469 531 
Q 828 903 1448 1529 
Q 2069 2156 2228 2338 
Q 2531 2678 2651 2914 
Q 2772 3150 2772 3378 
Q 2772 3750 2511 3984 
Q 2250 4219 1831 4219 
Q 1534 4219 1204 4116 
Q 875 4013 500 3803 
L 500 4441 
Q 881 4594 1212 4672 
Q 1544 4750 1819 4750 
Q 2544 4750 2975 4387 
Q 3406 4025 3406 3419 
Q 3406 3131 3298 2873 
Q 3191 2616 2906 2266 
Q 2828 2175 2409 1742 
Q 1991 1309 1228 531 
z
" transform="scale(0.015625)"/>
       </defs>
       <use xlink:href="#DejaVuSans-32"/>
       <use xlink:href="#DejaVuSans-30" x="63.623047"/>
      </g>
     </g>
    </g>
    <g id="xtick_6">
     <g id="line2d_11">
      <path d="M 265.018812 320.4 
L 265.018812 43.2 
" clip-path="url(#pfd73ce5990)" style="fill: none; stroke: #b0b0b0; stroke-width: 0.5; stroke-linecap: square"/>
     </g>
     <g id="line2d_12">
      <g>
       <use xlink:href="#m1927bfe143" x="265.018812" y="320.4" style="stroke: #000000; stroke-width: 0.8"/>
      </g>
     </g>
     <g id="text_6">
      <!-- 25 -->
      <g transform="translate(258.656312 334.998438) scale(0.1 -0.1)">
       <use xlink:href="#DejaVuSans-32"/>
       <use xlink:href="#DejaVuSans-35" x="63.623047"/>
      </g>
     </g>
    </g>
    <g id="xtick_7">
     <g id="line2d_13">
      <path d="M 292.642574 320.4 
L 292.642574 43.2 
" clip-path="url(#pfd73ce5990)" style="fill: none; stroke: #b0b0b0; stroke-width: 0.5; stroke-linecap: square"/>
     </g>
     <g id="line2d_14">
      <g>
       <use xlink:href="#m1927bfe143" x="292.642574" y="320.4" style="stroke: #000000; stroke-width: 0.8"/>
      </g>
     </g>
     <g id="text_7">
      <!-- 30 -->
      <g transform="translate(286.280074 334.998438) scale(0.1 -0.1)">
       <defs>
        <path id="DejaVuSans-33" d="M 2597 2516 
Q 3050 2419 3304 2112 
Q 3559 1806 3559 1356 
Q 3559 666 3084 287 
Q 2609 -91 1734 -91 
Q 1441 -91 1130 -33 
Q 819 25 488 141 
L 488 750 
Q 750 597 1062 519 
Q 1375 441 1716 441 
Q 2309 441 2620 675 
Q 2931 909 2931 1356 
Q 2931 1769 2642 2001 
Q 2353 2234 1838 2234 
L 1294 2234 
L 1294 2753 
L 1863 2753 
Q 2328 2753 2575 2939 
Q 2822 3125 2822 3475 
Q 2822 3834 2567 4026 
Q 2313 4219 1838 4219 
Q 1578 4219 1281 4162 
Q 984 4106 628 3988 
L 628 4550 
Q 988 4650 1302 4700 
Q 1616 4750 1894 4750 
Q 2613 4750 3031 4423 
Q 3450 4097 3450 3541 
Q 3450 3153 3228 2886 
Q 3006 2619 2597 2516 
z
" transform="scale(0.015625)"/>
       </defs>
       <use xlink:href="#DejaVuSans-33"/>
       <use xlink:href="#DejaVuSans-30" x="63.623047"/>
      </g>
     </g>
    </g>
    <g id="xtick_8">
     <g id="line2d_15">
      <path d="M 320.266337 320.4 
L 320.266337 43.2 
" clip-path="url(#pfd73ce5990)" style="fill: none; stroke: #b0b0b0; stroke-width: 0.5; stroke-linecap: square"/>
     </g>
     <g id="line2d_16">
      <g>
       <use xlink:href="#m1927bfe143" x="320.266337" y="320.4" style="stroke: #000000; stroke-width: 0.8"/>
      </g>
     </g>
     <g id="text_8">
      <!-- 35 -->
      <g transform="translate(313.903837 334.998438) scale(0.1 -0.1)">
       <use xlink:href="#DejaVuSans-33"/>
       <use xlink:href="#DejaVuSans-35" x="63.623047"/>
      </g>
     </g>
    </g>
    <g id="xtick_9">
     <g id="line2d_17">
      <path d="M 347.890099 320.4 
L 347.890099 43.2 
" clip-path="url(#pfd73ce5990)" style="fill: none; stroke: #b0b0b0; stroke-width: 0.5; stroke-linecap: square"/>
     </g>
     <g id="line2d_18">
      <g>
       <use xlink:href="#m1927bfe143" x="347.890099" y="320.4" style="stroke: #000000; stroke-width: 0.8"/>
      </g>
     </g>
     <g id="text_9">
      <!-- 40 -->
      <g transform="translate(341.527599 334.998438) scale(0.1 -0.1)">
       <defs>
        <path id="DejaVuSans-34" d="M 2419 4116 
L 825 1625 
L 2419 1625 
L 2419 4116 
z
M 2253 4666 
L 3047 4666 
L 3047 1625 
L 3713 1625 
L 3713 1100 
L 3047 1100 
L 3047 0 
L 2419 0 
L 2419 1100 
L 313 1100 
L 313 1709 
L 2253 4666 
z
" transform="scale(0.015625)"/>
       </defs>
       <use xlink:href="#DejaVuSans-34"/>
       <use xlink:href="#DejaVuSans-30" x="63.623047"/>
      </g>
     </g>
    </g>
    <g id="xtick_10">
     <g id="line2d_19">
      <path d="M 375.513861 320.4 
L 375.513861 43.2 
" clip-path="url(#pfd73ce5990)" style="fill: none; stroke: #b0b0b0; stroke-width: 0.5; stroke-linecap: square"/>
     </g>
     <g id="line2d_20">
      <g>
       <use xlink:href="#m1927bfe143" x="375.513861" y="320.4" style="stroke: #000000; stroke-width: 0.8"/>
      </g>
     </g>
     <g id="text_10">
      <!-- 45 -->
      <g transform="translate(369.151361 334.998438) scale(0.1 -0.1)">
       <use xlink:href="#DejaVuSans-34"/>
       <use xlink:href="#DejaVuSans-35" x="63.623047"/>
      </g>
     </g>
    </g>
    <g id="xtick_11">
     <g id="line2d_21">
      <path d="M 403.137624 320.4 
L 403.137624 43.2 
" clip-path="url(#pfd73ce5990)" style="fill: none; stroke: #b0b0b0; stroke-width: 0.5; stroke-linecap: square"/>
     </g>
     <g id="line2d_22">
      <g>
       <use xlink:href="#m1927bfe143" x="403.137624" y="320.4" style="stroke: #000000; stroke-width: 0.8"/>
      </g>
     </g>
     <g id="text_11">
      <!-- 50 -->
      <g transform="translate(396.775124 334.998438) scale(0.1 -0.1)">
       <use xlink:href="#DejaVuSans-35"/>
       <use xlink:href="#DejaVuSans-30" x="63.623047"/>
      </g>
     </g>
    </g>
    <g id="xtick_12">
     <g id="line2d_23">
      <path d="M 430.761386 320.4 
L 430.761386 43.2 
" clip-path="url(#pfd73ce5990)" style="fill: none; stroke: #b0b0b0; stroke-width: 0.5; stroke-linecap: square"/>
     </g>
     <g id="line2d_24">
      <g>
       <use xlink:href="#m1927bfe143" x="430.761386" y="320.4" style="stroke: #000000; stroke-width: 0.8"/>
      </g>
     </g>
     <g id="text_12">
      <!-- 55 -->
      <g transform="translate(424.398886 334.998438) scale(0.1 -0.1)">
       <use xlink:href="#DejaVuSans-35"/>
       <use xlink:href="#DejaVuSans-35" x="63.623047"/>
      </g>
     </g>
    </g>
    <g id="xtick_13">
     <g id="line2d_25">
      <path d="M 458.385149 320.4 
L 458.385149 43.2 
" clip-path="url(#pfd73ce5990)" style="fill: none; stroke: #b0b0b0; stroke-width: 0.5; stroke-linecap: square"/>
     </g>
     <g id="line2d_26">
      <g>
       <use xlink:href="#m1927bfe143" x="458.385149" y="320.4" style="stroke: #000000; stroke-width: 0.8"/>
      </g>
     </g>
     <g id="text_13">
      <!-- 60 -->
      <g transform="translate(452.022649 334.998438) scale(0.1 -0.1)">
       <defs>
        <path id="DejaVuSans-36" d="M 2113 2584 
Q 1688 2584 1439 2293 
Q 1191 2003 1191 1497 
Q 1191 994 1439 701 
Q 1688 409 2113 409 
Q 2538 409 2786 701 
Q 3034 994 3034 1497 
Q 3034 2003 2786 2293 
Q 2538 2584 2113 2584 
z
M 3366 4563 
L 3366 3988 
Q 3128 4100 2886 4159 
Q 2644 4219 2406 4219 
Q 1781 4219 1451 3797 
Q 1122 3375 1075 2522 
Q 1259 2794 1537 2939 
Q 1816 3084 2150 3084 
Q 2853 3084 3261 2657 
Q 3669 2231 3669 1497 
Q 3669 778 3244 343 
Q 2819 -91 2113 -91 
Q 1303 -91 875 529 
Q 447 1150 447 2328 
Q 447 3434 972 4092 
Q 1497 4750 2381 4750 
Q 2619 4750 2861 4703 
Q 3103 4656 3366 4563 
z
" transform="scale(0.015625)"/>
       </defs>
       <use xlink:href="#DejaVuSans-36"/>
       <use xlink:href="#DejaVuSans-30" x="63.623047"/>
      </g>
     </g>
    </g>
    <g id="xtick_14">
     <g id="line2d_27">
      <path d="M 486.008911 320.4 
L 486.008911 43.2 
" clip-path="url(#pfd73ce5990)" style="fill: none; stroke: #b0b0b0; stroke-width: 0.5; stroke-linecap: square"/>
     </g>
     <g id="line2d_28">
      <g>
       <use xlink:href="#m1927bfe143" x="486.008911" y="320.4" style="stroke: #000000; stroke-width: 0.8"/>
      </g>
     </g>
     <g id="text_14">
      <!-- 65 -->
      <g transform="translate(479.646411 334.998438) scale(0.1 -0.1)">
       <use xlink:href="#DejaVuSans-36"/>
       <use xlink:href="#DejaVuSans-35" x="63.623047"/>
      </g>
     </g>
    </g>
    <g id="xtick_15">
     <g id="line2d_29">
      <path d="M 513.632673 320.4 
L 513.632673 43.2 
" clip-path="url(#pfd73ce5990)" style="fill: none; stroke: #b0b0b0; stroke-width: 0.5; stroke-linecap: square"/>
     </g>
     <g id="line2d_30">
      <g>
       <use xlink:href="#m1927bfe143" x="513.632673" y="320.4" style="stroke: #000000; stroke-width: 0.8"/>
      </g>
     </g>
     <g id="text_15">
      <!-- 70 -->
      <g transform="translate(507.270173 334.998438) scale(0.1 -0.1)">
       <defs>
        <path id="DejaVuSans-37" d="M 525 4666 
L 3525 4666 
L 3525 4397 
L 1831 0 
L 1172 0 
L 2766 4134 
L 525 4134 
L 525 4666 
z
" transform="scale(0.015625)"/>
       </defs>
       <use xlink:href="#DejaVuSans-37"/>
       <use xlink:href="#DejaVuSans-30" x="63.623047"/>
      </g>
     </g>
    </g>
    <g id="xtick_16">
     <g id="line2d_31">
      <path d="M 541.256436 320.4 
L 541.256436 43.2 
" clip-path="url(#pfd73ce5990)" style="fill: none; stroke: #b0b0b0; stroke-width: 0.5; stroke-linecap: square"/>
     </g>
     <g id="line2d_32">
      <g>
       <use xlink:href="#m1927bfe143" x="541.256436" y="320.4" style="stroke: #000000; stroke-width: 0.8"/>
      </g>
     </g>
     <g id="text_16">
      <!-- 75 -->
      <g transform="translate(534.893936 334.998438) scale(0.1 -0.1)">
       <use xlink:href="#DejaVuSans-37"/>
       <use xlink:href="#DejaVuSans-35" x="63.623047"/>
      </g>
     </g>
    </g>
    <g id="xtick_17">
     <g id="line2d_33">
      <path d="M 568.880198 320.4 
L 568.880198 43.2 
" clip-path="url(#pfd73ce5990)" style="fill: none; stroke: #b0b0b0; stroke-width: 0.5; stroke-linecap: square"/>
     </g>
     <g id="line2d_34">
      <g>
       <use xlink:href="#m1927bfe143" x="568.880198" y="320.4" style="stroke: #000000; stroke-width: 0.8"/>
      </g>
     </g>
     <g id="text_17">
      <!-- 80 -->
      <g transform="translate(562.517698 334.998438) scale(0.1 -0.1)">
       <defs>
        <path id="DejaVuSans-38" d="M 2034 2216 
Q 1584 2216 1326 1975 
Q 1069 1734 1069 1313 
Q 1069 891 1326 650 
Q 1584 409 2034 409 
Q 2484 409 2743 651 
Q 3003 894 3003 1313 
Q 3003 1734 2745 1975 
Q 2488 2216 2034 2216 
z
M 1403 2484 
Q 997 2584 770 2862 
Q 544 3141 544 3541 
Q 544 4100 942 4425 
Q 1341 4750 2034 4750 
Q 2731 4750 3128 4425 
Q 3525 4100 3525 3541 
Q 3525 3141 3298 2862 
Q 3072 2584 2669 2484 
Q 3125 2378 3379 2068 
Q 3634 1759 3634 1313 
Q 3634 634 3220 271 
Q 2806 -91 2034 -91 
Q 1263 -91 848 271 
Q 434 634 434 1313 
Q 434 1759 690 2068 
Q 947 2378 1403 2484 
z
M 1172 3481 
Q 1172 3119 1398 2916 
Q 1625 2713 2034 2713 
Q 2441 2713 2670 2916 
Q 2900 3119 2900 3481 
Q 2900 3844 2670 4047 
Q 2441 4250 2034 4250 
Q 1625 4250 1398 4047 
Q 1172 3844 1172 3481 
z
" transform="scale(0.015625)"/>
       </defs>
       <use xlink:href="#DejaVuSans-38"/>
       <use xlink:href="#DejaVuSans-30" x="63.623047"/>
      </g>
     </g>
    </g>
    <g id="xtick_18">
     <g id="line2d_35">
      <path d="M 596.50396 320.4 
L 596.50396 43.2 
" clip-path="url(#pfd73ce5990)" style="fill: none; stroke: #b0b0b0; stroke-width: 0.5; stroke-linecap: square"/>
     </g>
     <g id="line2d_36">
      <g>
       <use xlink:href="#m1927bfe143" x="596.50396" y="320.4" style="stroke: #000000; stroke-width: 0.8"/>
      </g>
     </g>
     <g id="text_18">
      <!-- 85 -->
      <g transform="translate(590.14146 334.998438) scale(0.1 -0.1)">
       <use xlink:href="#DejaVuSans-38"/>
       <use xlink:href="#DejaVuSans-35" x="63.623047"/>
      </g>
     </g>
    </g>
    <g id="xtick_19">
     <g id="line2d_37">
      <path d="M 624.127723 320.4 
L 624.127723 43.2 
" clip-path="url(#pfd73ce5990)" style="fill: none; stroke: #b0b0b0; stroke-width: 0.5; stroke-linecap: square"/>
     </g>
     <g id="line2d_38">
      <g>
       <use xlink:href="#m1927bfe143" x="624.127723" y="320.4" style="stroke: #000000; stroke-width: 0.8"/>
      </g>
     </g>
     <g id="text_19">
      <!-- 90 -->
      <g transform="translate(617.765223 334.998438) scale(0.1 -0.1)">
       <defs>
        <path id="DejaVuSans-39" d="M 703 97 
L 703 672 
Q 941 559 1184 500 
Q 1428 441 1663 441 
Q 2288 441 2617 861 
Q 2947 1281 2994 2138 
Q 2813 1869 2534 1725 
Q 2256 1581 1919 1581 
Q 1219 1581 811 2004 
Q 403 2428 403 3163 
Q 403 3881 828 4315 
Q 1253 4750 1959 4750 
Q 2769 4750 3195 4129 
Q 3622 3509 3622 2328 
Q 3622 1225 3098 567 
Q 2575 -91 1691 -91 
Q 1453 -91 1209 -44 
Q 966 3 703 97 
z
M 1959 2075 
Q 2384 2075 2632 2365 
Q 2881 2656 2881 3163 
Q 2881 3666 2632 3958 
Q 2384 4250 1959 4250 
Q 1534 4250 1286 3958 
Q 1038 3666 1038 3163 
Q 1038 2656 1286 2365 
Q 1534 2075 1959 2075 
z
" transform="scale(0.015625)"/>
       </defs>
       <use xlink:href="#DejaVuSans-39"/>
       <use xlink:href="#DejaVuSans-30" x="63.623047"/>
      </g>
     </g>
    </g>
    <g id="xtick_20">
     <g id="line2d_39">
      <path d="M 651.751485 320.4 
L 651.751485 43.2 
" clip-path="url(#pfd73ce5990)" style="fill: none; stroke: #b0b0b0; stroke-width: 0.5; stroke-linecap: square"/>
     </g>
     <g id="line2d_40">
      <g>
       <use xlink:href="#m1927bfe143" x="651.751485" y="320.4" style="stroke: #000000; stroke-width: 0.8"/>
      </g>
     </g>
     <g id="text_20">
      <!-- 95 -->
      <g transform="translate(645.388985 334.998438) scale(0.1 -0.1)">
       <use xlink:href="#DejaVuSans-39"/>
       <use xlink:href="#DejaVuSans-35" x="63.623047"/>
      </g>
     </g>
    </g>
    <g id="xtick_21">
     <g id="line2d_41">
      <path d="M 679.375248 320.4 
L 679.375248 43.2 
" clip-path="url(#pfd73ce5990)" style="fill: none; stroke: #b0b0b0; stroke-width: 0.5; stroke-linecap: square"/>
     </g>
     <g id="line2d_42">
      <g>
       <use xlink:href="#m1927bfe143" x="679.375248" y="320.4" style="stroke: #000000; stroke-width: 0.8"/>
      </g>
     </g>
     <g id="text_21">
      <!-- 100 -->
      <g transform="translate(669.831498 334.998438) scale(0.1 -0.1)">
       <use xlink:href="#DejaVuSans-31"/>
       <use xlink:href="#DejaVuSans-30" x="63.623047"/>
       <use xlink:href="#DejaVuSans-30" x="127.246094"/>
      </g>
     </g>
    </g>
    <g id="text_22">
     <!-- Week number -->
     <g transform="translate(371.098438 348.676562) scale(0.1 -0.1)">
      <defs>
       <path id="DejaVuSans-57" d="M 213 4666 
L 850 4666 
L 1831 722 
L 2809 4666 
L 3519 4666 
L 4500 722 
L 5478 4666 
L 6119 4666 
L 4947 0 
L 4153 0 
L 3169 4050 
L 2175 0 
L 1381 0 
L 213 4666 
z
" transform="scale(0.015625)"/>
       <path id="DejaVuSans-65" d="M 3597 1894 
L 3597 1613 
L 953 1613 
Q 991 1019 1311 708 
Q 1631 397 2203 397 
Q 2534 397 2845 478 
Q 3156 559 3463 722 
L 3463 178 
Q 3153 47 2828 -22 
Q 2503 -91 2169 -91 
Q 1331 -91 842 396 
Q 353 884 353 1716 
Q 353 2575 817 3079 
Q 1281 3584 2069 3584 
Q 2775 3584 3186 3129 
Q 3597 2675 3597 1894 
z
M 3022 2063 
Q 3016 2534 2758 2815 
Q 2500 3097 2075 3097 
Q 1594 3097 1305 2825 
Q 1016 2553 972 2059 
L 3022 2063 
z
" transform="scale(0.015625)"/>
       <path id="DejaVuSans-6b" d="M 581 4863 
L 1159 4863 
L 1159 1991 
L 2875 3500 
L 3609 3500 
L 1753 1863 
L 3688 0 
L 2938 0 
L 1159 1709 
L 1159 0 
L 581 0 
L 581 4863 
z
" transform="scale(0.015625)"/>
       <path id="DejaVuSans-20" transform="scale(0.015625)"/>
       <path id="DejaVuSans-6e" d="M 3513 2113 
L 3513 0 
L 2938 0 
L 2938 2094 
Q 2938 2591 2744 2837 
Q 2550 3084 2163 3084 
Q 1697 3084 1428 2787 
Q 1159 2491 1159 1978 
L 1159 0 
L 581 0 
L 581 3500 
L 1159 3500 
L 1159 2956 
Q 1366 3272 1645 3428 
Q 1925 3584 2291 3584 
Q 2894 3584 3203 3211 
Q 3513 2838 3513 2113 
z
" transform="scale(0.015625)"/>
       <path id="DejaVuSans-75" d="M 544 1381 
L 544 3500 
L 1119 3500 
L 1119 1403 
Q 1119 906 1312 657 
Q 1506 409 1894 409 
Q 2359 409 2629 706 
Q 2900 1003 2900 1516 
L 2900 3500 
L 3475 3500 
L 3475 0 
L 2900 0 
L 2900 538 
Q 2691 219 2414 64 
Q 2138 -91 1772 -91 
Q 1169 -91 856 284 
Q 544 659 544 1381 
z
M 1991 3584 
L 1991 3584 
z
" transform="scale(0.015625)"/>
       <path id="DejaVuSans-6d" d="M 3328 2828 
Q 3544 3216 3844 3400 
Q 4144 3584 4550 3584 
Q 5097 3584 5394 3201 
Q 5691 2819 5691 2113 
L 5691 0 
L 5113 0 
L 5113 2094 
Q 5113 2597 4934 2840 
Q 4756 3084 4391 3084 
Q 3944 3084 3684 2787 
Q 3425 2491 3425 1978 
L 3425 0 
L 2847 0 
L 2847 2094 
Q 2847 2600 2669 2842 
Q 2491 3084 2119 3084 
Q 1678 3084 1418 2786 
Q 1159 2488 1159 1978 
L 1159 0 
L 581 0 
L 581 3500 
L 1159 3500 
L 1159 2956 
Q 1356 3278 1631 3431 
Q 1906 3584 2284 3584 
Q 2666 3584 2933 3390 
Q 3200 3197 3328 2828 
z
" transform="scale(0.015625)"/>
       <path id="DejaVuSans-62" d="M 3116 1747 
Q 3116 2381 2855 2742 
Q 2594 3103 2138 3103 
Q 1681 3103 1420 2742 
Q 1159 2381 1159 1747 
Q 1159 1113 1420 752 
Q 1681 391 2138 391 
Q 2594 391 2855 752 
Q 3116 1113 3116 1747 
z
M 1159 2969 
Q 1341 3281 1617 3432 
Q 1894 3584 2278 3584 
Q 2916 3584 3314 3078 
Q 3713 2572 3713 1747 
Q 3713 922 3314 415 
Q 2916 -91 2278 -91 
Q 1894 -91 1617 61 
Q 1341 213 1159 525 
L 1159 0 
L 581 0 
L 581 4863 
L 1159 4863 
L 1159 2969 
z
" transform="scale(0.015625)"/>
       <path id="DejaVuSans-72" d="M 2631 2963 
Q 2534 3019 2420 3045 
Q 2306 3072 2169 3072 
Q 1681 3072 1420 2755 
Q 1159 2438 1159 1844 
L 1159 0 
L 581 0 
L 581 3500 
L 1159 3500 
L 1159 2956 
Q 1341 3275 1631 3429 
Q 1922 3584 2338 3584 
Q 2397 3584 2469 3576 
Q 2541 3569 2628 3553 
L 2631 2963 
z
" transform="scale(0.015625)"/>
      </defs>
      <use xlink:href="#DejaVuSans-57"/>
      <use xlink:href="#DejaVuSans-65" x="93.001953"/>
      <use xlink:href="#DejaVuSans-65" x="154.525391"/>
      <use xlink:href="#DejaVuSans-6b" x="216.048828"/>
      <use xlink:href="#DejaVuSans-20" x="273.958984"/>
      <use xlink:href="#DejaVuSans-6e" x="305.746094"/>
      <use xlink:href="#DejaVuSans-75" x="369.125"/>
      <use xlink:href="#DejaVuSans-6d" x="432.503906"/>
      <use xlink:href="#DejaVuSans-62" x="529.916016"/>
      <use xlink:href="#DejaVuSans-65" x="593.392578"/>
      <use xlink:href="#DejaVuSans-72" x="654.916016"/>
     </g>
    </g>
   </g>
   <g id="matplotlib.axis_2">
    <g id="ytick_1">
     <g id="line2d_43">
      <path d="M 99 307.8 
L 712.8 307.8 
" clip-path="url(#pfd73ce5990)" style="fill: none; stroke: #b0b0b0; stroke-width: 0.5; stroke-linecap: square"/>
     </g>
     <g id="line2d_44">
      <defs>
       <path id="mb63ccb8cb9" d="M 0 0 
L -3.5 0 
" style="stroke: #000000; stroke-width: 0.8"/>
      </defs>
      <g>
       <use xlink:href="#mb63ccb8cb9" x="99" y="307.8" style="stroke: #000000; stroke-width: 0.8"/>
      </g>
     </g>
     <g id="text_23">
      <!-- 0 -->
      <g transform="translate(85.6375 311.599219) scale(0.1 -0.1)">
       <use xlink:href="#DejaVuSans-30"/>
      </g>
     </g>
    </g>
    <g id="ytick_2">
     <g id="line2d_45">
      <path d="M 99 271.0622 
L 712.8 271.0622 
" clip-path="url(#pfd73ce5990)" style="fill: none; stroke: #b0b0b0; stroke-width: 0.5; stroke-linecap: square"/>
     </g>
     <g id="line2d_46">
      <g>
       <use xlink:href="#mb63ccb8cb9" x="99" y="271.0622" style="stroke: #000000; stroke-width: 0.8"/>
      </g>
     </g>
     <g id="text_24">
      <!-- 5 -->
      <g transform="translate(85.6375 274.861419) scale(0.1 -0.1)">
       <use xlink:href="#DejaVuSans-35"/>
      </g>
     </g>
    </g>
    <g id="ytick_3">
     <g id="line2d_47">
      <path d="M 99 234.3244 
L 712.8 234.3244 
" clip-path="url(#pfd73ce5990)" style="fill: none; stroke: #b0b0b0; stroke-width: 0.5; stroke-linecap: square"/>
     </g>
     <g id="line2d_48">
      <g>
       <use xlink:href="#mb63ccb8cb9" x="99" y="234.3244" style="stroke: #000000; stroke-width: 0.8"/>
      </g>
     </g>
     <g id="text_25">
      <!-- 10 -->
      <g transform="translate(79.275 238.123619) scale(0.1 -0.1)">
       <use xlink:href="#DejaVuSans-31"/>
       <use xlink:href="#DejaVuSans-30" x="63.623047"/>
      </g>
     </g>
    </g>
    <g id="ytick_4">
     <g id="line2d_49">
      <path d="M 99 197.5866 
L 712.8 197.5866 
" clip-path="url(#pfd73ce5990)" style="fill: none; stroke: #b0b0b0; stroke-width: 0.5; stroke-linecap: square"/>
     </g>
     <g id="line2d_50">
      <g>
       <use xlink:href="#mb63ccb8cb9" x="99" y="197.5866" style="stroke: #000000; stroke-width: 0.8"/>
      </g>
     </g>
     <g id="text_26">
      <!-- 15 -->
      <g transform="translate(79.275 201.385819) scale(0.1 -0.1)">
       <use xlink:href="#DejaVuSans-31"/>
       <use xlink:href="#DejaVuSans-35" x="63.623047"/>
      </g>
     </g>
    </g>
    <g id="ytick_5">
     <g id="line2d_51">
      <path d="M 99 160.8488 
L 712.8 160.8488 
" clip-path="url(#pfd73ce5990)" style="fill: none; stroke: #b0b0b0; stroke-width: 0.5; stroke-linecap: square"/>
     </g>
     <g id="line2d_52">
      <g>
       <use xlink:href="#mb63ccb8cb9" x="99" y="160.8488" style="stroke: #000000; stroke-width: 0.8"/>
      </g>
     </g>
     <g id="text_27">
      <!-- 20 -->
      <g transform="translate(79.275 164.648019) scale(0.1 -0.1)">
       <use xlink:href="#DejaVuSans-32"/>
       <use xlink:href="#DejaVuSans-30" x="63.623047"/>
      </g>
     </g>
    </g>
    <g id="ytick_6">
     <g id="line2d_53">
      <path d="M 99 124.111 
L 712.8 124.111 
" clip-path="url(#pfd73ce5990)" style="fill: none; stroke: #b0b0b0; stroke-width: 0.5; stroke-linecap: square"/>
     </g>
     <g id="line2d_54">
      <g>
       <use xlink:href="#mb63ccb8cb9" x="99" y="124.111" style="stroke: #000000; stroke-width: 0.8"/>
      </g>
     </g>
     <g id="text_28">
      <!-- 25 -->
      <g transform="translate(79.275 127.910219) scale(0.1 -0.1)">
       <use xlink:href="#DejaVuSans-32"/>
       <use xlink:href="#DejaVuSans-35" x="63.623047"/>
      </g>
     </g>
    </g>
    <g id="ytick_7">
     <g id="line2d_55">
      <path d="M 99 87.3732 
L 712.8 87.3732 
" clip-path="url(#pfd73ce5990)" style="fill: none; stroke: #b0b0b0; stroke-width: 0.5; stroke-linecap: square"/>
     </g>
     <g id="line2d_56">
      <g>
       <use xlink:href="#mb63ccb8cb9" x="99" y="87.3732" style="stroke: #000000; stroke-width: 0.8"/>
      </g>
     </g>
     <g id="text_29">
      <!-- 30 -->
      <g transform="translate(79.275 91.172419) scale(0.1 -0.1)">
       <use xlink:href="#DejaVuSans-33"/>
       <use xlink:href="#DejaVuSans-30" x="63.623047"/>
      </g>
     </g>
    </g>
    <g id="ytick_8">
     <g id="line2d_57">
      <path d="M 99 50.6354 
L 712.8 50.6354 
" clip-path="url(#pfd73ce5990)" style="fill: none; stroke: #b0b0b0; stroke-width: 0.5; stroke-linecap: square"/>
     </g>
     <g id="line2d_58">
      <g>
       <use xlink:href="#mb63ccb8cb9" x="99" y="50.6354" style="stroke: #000000; stroke-width: 0.8"/>
      </g>
     </g>
     <g id="text_30">
      <!-- 35 -->
      <g transform="translate(79.275 54.434619) scale(0.1 -0.1)">
       <use xlink:href="#DejaVuSans-33"/>
       <use xlink:href="#DejaVuSans-35" x="63.623047"/>
      </g>
     </g>
    </g>
    <g id="text_31">
     <!-- Weekly distance (km) -->
     <g transform="translate(67.195312 235.878906) rotate(-90) scale(0.1 -0.1)">
      <defs>
       <path id="DejaVuSans-6c" d="M 603 4863 
L 1178 4863 
L 1178 0 
L 603 0 
L 603 4863 
z
" transform="scale(0.015625)"/>
       <path id="DejaVuSans-79" d="M 2059 -325 
Q 1816 -950 1584 -1140 
Q 1353 -1331 966 -1331 
L 506 -1331 
L 506 -850 
L 844 -850 
Q 1081 -850 1212 -737 
Q 1344 -625 1503 -206 
L 1606 56 
L 191 3500 
L 800 3500 
L 1894 763 
L 2988 3500 
L 3597 3500 
L 2059 -325 
z
" transform="scale(0.015625)"/>
       <path id="DejaVuSans-64" d="M 2906 2969 
L 2906 4863 
L 3481 4863 
L 3481 0 
L 2906 0 
L 2906 525 
Q 2725 213 2448 61 
Q 2172 -91 1784 -91 
Q 1150 -91 751 415 
Q 353 922 353 1747 
Q 353 2572 751 3078 
Q 1150 3584 1784 3584 
Q 2172 3584 2448 3432 
Q 2725 3281 2906 2969 
z
M 947 1747 
Q 947 1113 1208 752 
Q 1469 391 1925 391 
Q 2381 391 2643 752 
Q 2906 1113 2906 1747 
Q 2906 2381 2643 2742 
Q 2381 3103 1925 3103 
Q 1469 3103 1208 2742 
Q 947 2381 947 1747 
z
" transform="scale(0.015625)"/>
       <path id="DejaVuSans-69" d="M 603 3500 
L 1178 3500 
L 1178 0 
L 603 0 
L 603 3500 
z
M 603 4863 
L 1178 4863 
L 1178 4134 
L 603 4134 
L 603 4863 
z
" transform="scale(0.015625)"/>
       <path id="DejaVuSans-73" d="M 2834 3397 
L 2834 2853 
Q 2591 2978 2328 3040 
Q 2066 3103 1784 3103 
Q 1356 3103 1142 2972 
Q 928 2841 928 2578 
Q 928 2378 1081 2264 
Q 1234 2150 1697 2047 
L 1894 2003 
Q 2506 1872 2764 1633 
Q 3022 1394 3022 966 
Q 3022 478 2636 193 
Q 2250 -91 1575 -91 
Q 1294 -91 989 -36 
Q 684 19 347 128 
L 347 722 
Q 666 556 975 473 
Q 1284 391 1588 391 
Q 1994 391 2212 530 
Q 2431 669 2431 922 
Q 2431 1156 2273 1281 
Q 2116 1406 1581 1522 
L 1381 1569 
Q 847 1681 609 1914 
Q 372 2147 372 2553 
Q 372 3047 722 3315 
Q 1072 3584 1716 3584 
Q 2034 3584 2315 3537 
Q 2597 3491 2834 3397 
z
" transform="scale(0.015625)"/>
       <path id="DejaVuSans-74" d="M 1172 4494 
L 1172 3500 
L 2356 3500 
L 2356 3053 
L 1172 3053 
L 1172 1153 
Q 1172 725 1289 603 
Q 1406 481 1766 481 
L 2356 481 
L 2356 0 
L 1766 0 
Q 1100 0 847 248 
Q 594 497 594 1153 
L 594 3053 
L 172 3053 
L 172 3500 
L 594 3500 
L 594 4494 
L 1172 4494 
z
" transform="scale(0.015625)"/>
       <path id="DejaVuSans-61" d="M 2194 1759 
Q 1497 1759 1228 1600 
Q 959 1441 959 1056 
Q 959 750 1161 570 
Q 1363 391 1709 391 
Q 2188 391 2477 730 
Q 2766 1069 2766 1631 
L 2766 1759 
L 2194 1759 
z
M 3341 1997 
L 3341 0 
L 2766 0 
L 2766 531 
Q 2569 213 2275 61 
Q 1981 -91 1556 -91 
Q 1019 -91 701 211 
Q 384 513 384 1019 
Q 384 1609 779 1909 
Q 1175 2209 1959 2209 
L 2766 2209 
L 2766 2266 
Q 2766 2663 2505 2880 
Q 2244 3097 1772 3097 
Q 1472 3097 1187 3025 
Q 903 2953 641 2809 
L 641 3341 
Q 956 3463 1253 3523 
Q 1550 3584 1831 3584 
Q 2591 3584 2966 3190 
Q 3341 2797 3341 1997 
z
" transform="scale(0.015625)"/>
       <path id="DejaVuSans-63" d="M 3122 3366 
L 3122 2828 
Q 2878 2963 2633 3030 
Q 2388 3097 2138 3097 
Q 1578 3097 1268 2742 
Q 959 2388 959 1747 
Q 959 1106 1268 751 
Q 1578 397 2138 397 
Q 2388 397 2633 464 
Q 2878 531 3122 666 
L 3122 134 
Q 2881 22 2623 -34 
Q 2366 -91 2075 -91 
Q 1284 -91 818 406 
Q 353 903 353 1747 
Q 353 2603 823 3093 
Q 1294 3584 2113 3584 
Q 2378 3584 2631 3529 
Q 2884 3475 3122 3366 
z
" transform="scale(0.015625)"/>
       <path id="DejaVuSans-28" d="M 1984 4856 
Q 1566 4138 1362 3434 
Q 1159 2731 1159 2009 
Q 1159 1288 1364 580 
Q 1569 -128 1984 -844 
L 1484 -844 
Q 1016 -109 783 600 
Q 550 1309 550 2009 
Q 550 2706 781 3412 
Q 1013 4119 1484 4856 
L 1984 4856 
z
" transform="scale(0.015625)"/>
       <path id="DejaVuSans-29" d="M 513 4856 
L 1013 4856 
Q 1481 4119 1714 3412 
Q 1947 2706 1947 2009 
Q 1947 1309 1714 600 
Q 1481 -109 1013 -844 
L 513 -844 
Q 928 -128 1133 580 
Q 1338 1288 1338 2009 
Q 1338 2731 1133 3434 
Q 928 4138 513 4856 
z
" transform="scale(0.015625)"/>
      </defs>
      <use xlink:href="#DejaVuSans-57"/>
      <use xlink:href="#DejaVuSans-65" x="93.001953"/>
      <use xlink:href="#DejaVuSans-65" x="154.525391"/>
      <use xlink:href="#DejaVuSans-6b" x="216.048828"/>
      <use xlink:href="#DejaVuSans-6c" x="273.958984"/>
      <use xlink:href="#DejaVuSans-79" x="301.742188"/>
      <use xlink:href="#DejaVuSans-20" x="360.921875"/>
      <use xlink:href="#DejaVuSans-64" x="392.708984"/>
      <use xlink:href="#DejaVuSans-69" x="456.185547"/>
      <use xlink:href="#DejaVuSans-73" x="483.96875"/>
      <use xlink:href="#DejaVuSans-74" x="536.068359"/>
      <use xlink:href="#DejaVuSans-61" x="575.277344"/>
      <use xlink:href="#DejaVuSans-6e" x="636.556641"/>
      <use xlink:href="#DejaVuSans-63" x="699.935547"/>
      <use xlink:href="#DejaVuSans-65" x="754.916016"/>
      <use xlink:href="#DejaVuSans-20" x="816.439453"/>
      <use xlink:href="#DejaVuSans-28" x="848.226562"/>
      <use xlink:href="#DejaVuSans-6b" x="887.240234"/>
      <use xlink:href="#DejaVuSans-6d" x="945.150391"/>
      <use xlink:href="#DejaVuSans-29" x="1042.5625"/>
     </g>
    </g>
   </g>
   <g id="line2d_59">
    <path d="M 126.9 293.839636 
L 132.424752 273.536123 
L 137.949505 262.947555 
L 143.474257 278.010053 
L 148.99901 239.286942 
L 154.523762 193.754847 
L 160.048515 196.657134 
L 165.573267 233.886485 
L 171.09802 189.960568 
L 176.622772 212.626321 
L 182.147525 307.8 
L 187.672277 284.809485 
L 193.19703 232.50294 
L 198.721782 270.325974 
L 204.246535 230.322184 
L 209.771287 210.763714 
L 215.29604 307.8 
L 220.820792 232.481632 
L 226.345545 270.32524 
L 231.870297 307.8 
L 237.39505 307.8 
L 242.919802 269.084237 
L 248.444554 233.851952 
L 253.969307 214.671881 
L 259.494059 273.170215 
L 265.018812 270.417084 
L 270.543564 268.682325 
L 276.068317 269.183429 
L 281.593069 234.095891 
L 287.117822 283.043866 
L 292.642574 271.021788 
L 298.167327 211.064964 
L 303.692079 263.049686 
L 309.216832 307.8 
L 314.741584 307.8 
L 320.266337 307.8 
L 325.791089 307.8 
L 331.315842 254.492717 
L 336.840594 180.105285 
L 342.365347 219.107603 
L 347.890099 105.363701 
L 353.414851 195.393353 
L 358.939604 307.8 
L 364.464356 263.270113 
L 369.989109 197.07374 
L 375.513861 151.626143 
L 381.038614 108.815584 
L 386.563366 76.492933 
L 392.088119 55.8 
L 397.612871 294.040959 
L 403.137624 261.634546 
L 408.662376 307.8 
L 414.187129 282.489125 
L 419.711881 281.544229 
L 425.236634 276.799175 
L 430.761386 240.220817 
L 436.286139 223.691011 
L 441.810891 219.293497 
L 447.335644 307.8 
L 452.860396 211.771799 
L 458.385149 254.306089 
L 463.909901 248.71974 
L 469.434653 245.759408 
L 474.959406 233.311171 
L 480.484158 232.077516 
L 486.008911 234.127485 
L 491.533663 233.596257 
L 497.058416 234.039315 
L 502.583168 178.94731 
L 508.107921 173.897332 
L 513.632673 175.468975 
L 519.157426 262.282601 
L 524.682178 232.335416 
L 530.206931 195.364698 
L 535.731683 307.8 
L 541.256436 193.746765 
L 546.781188 119.856028 
L 552.305941 195.649048 
L 557.830693 226.383157 
L 563.355446 233.922488 
L 568.880198 184.279434 
L 574.40495 149.077274 
L 579.929703 152.310201 
L 585.454455 187.256665 
L 590.979208 186.478559 
L 596.50396 307.8 
L 602.028713 189.372763 
L 607.553465 256.094486 
L 613.078218 183.959081 
L 618.60297 174.68499 
L 624.127723 307.8 
L 629.652475 307.8 
L 635.177228 307.8 
L 640.70198 307.8 
L 646.226733 307.8 
L 651.751485 232.195812 
L 657.276238 270.832221 
L 662.80099 213.966516 
L 668.325743 182.175828 
L 673.850495 213.707147 
L 679.375248 187.7394 
L 684.9 262.782235 
" clip-path="url(#pfd73ce5990)" style="fill: none; stroke: #0000ff; stroke-width: 1.5; stroke-linecap: square"/>
    <defs>
     <path id="m4d28b12edd" d="M 0 3 
C 0.795609 3 1.55874 2.683901 2.12132 2.12132 
C 2.683901 1.55874 3 0.795609 3 0 
C 3 -0.795609 2.683901 -1.55874 2.12132 -2.12132 
C 1.55874 -2.683901 0.795609 -3 0 -3 
C -0.795609 -3 -1.55874 -2.683901 -2.12132 -2.12132 
C -2.683901 -1.55874 -3 -0.795609 -3 0 
C -3 0.795609 -2.683901 1.55874 -2.12132 2.12132 
C -1.55874 2.683901 -0.795609 3 0 3 
z
" style="stroke: #000000"/>
    </defs>
    <g clip-path="url(#pfd73ce5990)">
     <use xlink:href="#m4d28b12edd" x="126.9" y="293.839636" style="fill: #727ffc; stroke: #000000"/>
     <use xlink:href="#m4d28b12edd" x="132.424752" y="273.536123" style="fill: #727ffc; stroke: #000000"/>
     <use xlink:href="#m4d28b12edd" x="137.949505" y="262.947555" style="fill: #727ffc; stroke: #000000"/>
     <use xlink:href="#m4d28b12edd" x="143.474257" y="278.010053" style="fill: #727ffc; stroke: #000000"/>
     <use xlink:href="#m4d28b12edd" x="148.99901" y="239.286942" style="fill: #727ffc; stroke: #000000"/>
     <use xlink:href="#m4d28b12edd" x="154.523762" y="193.754847" style="fill: #727ffc; stroke: #000000"/>
     <use xlink:href="#m4d28b12edd" x="160.048515" y="196.657134" style="fill: #727ffc; stroke: #000000"/>
     <use xlink:href="#m4d28b12edd" x="165.573267" y="233.886485" style="fill: #727ffc; stroke: #000000"/>
     <use xlink:href="#m4d28b12edd" x="171.09802" y="189.960568" style="fill: #727ffc; stroke: #000000"/>
     <use xlink:href="#m4d28b12edd" x="176.622772" y="212.626321" style="fill: #727ffc; stroke: #000000"/>
     <use xlink:href="#m4d28b12edd" x="182.147525" y="307.8" style="fill: #727ffc; stroke: #000000"/>
     <use xlink:href="#m4d28b12edd" x="187.672277" y="284.809485" style="fill: #727ffc; stroke: #000000"/>
     <use xlink:href="#m4d28b12edd" x="193.19703" y="232.50294" style="fill: #727ffc; stroke: #000000"/>
     <use xlink:href="#m4d28b12edd" x="198.721782" y="270.325974" style="fill: #727ffc; stroke: #000000"/>
     <use xlink:href="#m4d28b12edd" x="204.246535" y="230.322184" style="fill: #727ffc; stroke: #000000"/>
     <use xlink:href="#m4d28b12edd" x="209.771287" y="210.763714" style="fill: #727ffc; stroke: #000000"/>
     <use xlink:href="#m4d28b12edd" x="215.29604" y="307.8" style="fill: #727ffc; stroke: #000000"/>
     <use xlink:href="#m4d28b12edd" x="220.820792" y="232.481632" style="fill: #727ffc; stroke: #000000"/>
     <use xlink:href="#m4d28b12edd" x="226.345545" y="270.32524" style="fill: #727ffc; stroke: #000000"/>
     <use xlink:href="#m4d28b12edd" x="231.870297" y="307.8" style="fill: #727ffc; stroke: #000000"/>
     <use xlink:href="#m4d28b12edd" x="237.39505" y="307.8" style="fill: #727ffc; stroke: #000000"/>
     <use xlink:href="#m4d28b12edd" x="242.919802" y="269.084237" style="fill: #727ffc; stroke: #000000"/>
     <use xlink:href="#m4d28b12edd" x="248.444554" y="233.851952" style="fill: #727ffc; stroke: #000000"/>
     <use xlink:href="#m4d28b12edd" x="253.969307" y="214.671881" style="fill: #727ffc; stroke: #000000"/>
     <use xlink:href="#m4d28b12edd" x="259.494059" y="273.170215" style="fill: #727ffc; stroke: #000000"/>
     <use xlink:href="#m4d28b12edd" x="265.018812" y="270.417084" style="fill: #727ffc; stroke: #000000"/>
     <use xlink:href="#m4d28b12edd" x="270.543564" y="268.682325" style="fill: #727ffc; stroke: #000000"/>
     <use xlink:href="#m4d28b12edd" x="276.068317" y="269.183429" style="fill: #727ffc; stroke: #000000"/>
     <use xlink:href="#m4d28b12edd" x="281.593069" y="234.095891" style="fill: #727ffc; stroke: #000000"/>
     <use xlink:href="#m4d28b12edd" x="287.117822" y="283.043866" style="fill: #727ffc; stroke: #000000"/>
     <use xlink:href="#m4d28b12edd" x="292.642574" y="271.021788" style="fill: #727ffc; stroke: #000000"/>
     <use xlink:href="#m4d28b12edd" x="298.167327" y="211.064964" style="fill: #727ffc; stroke: #000000"/>
     <use xlink:href="#m4d28b12edd" x="303.692079" y="263.049686" style="fill: #727ffc; stroke: #000000"/>
     <use xlink:href="#m4d28b12edd" x="309.216832" y="307.8" style="fill: #727ffc; stroke: #000000"/>
     <use xlink:href="#m4d28b12edd" x="314.741584" y="307.8" style="fill: #727ffc; stroke: #000000"/>
     <use xlink:href="#m4d28b12edd" x="320.266337" y="307.8" style="fill: #727ffc; stroke: #000000"/>
     <use xlink:href="#m4d28b12edd" x="325.791089" y="307.8" style="fill: #727ffc; stroke: #000000"/>
     <use xlink:href="#m4d28b12edd" x="331.315842" y="254.492717" style="fill: #727ffc; stroke: #000000"/>
     <use xlink:href="#m4d28b12edd" x="336.840594" y="180.105285" style="fill: #727ffc; stroke: #000000"/>
     <use xlink:href="#m4d28b12edd" x="342.365347" y="219.107603" style="fill: #727ffc; stroke: #000000"/>
     <use xlink:href="#m4d28b12edd" x="347.890099" y="105.363701" style="fill: #727ffc; stroke: #000000"/>
     <use xlink:href="#m4d28b12edd" x="353.414851" y="195.393353" style="fill: #727ffc; stroke: #000000"/>
     <use xlink:href="#m4d28b12edd" x="358.939604" y="307.8" style="fill: #727ffc; stroke: #000000"/>
     <use xlink:href="#m4d28b12edd" x="364.464356" y="263.270113" style="fill: #727ffc; stroke: #000000"/>
     <use xlink:href="#m4d28b12edd" x="369.989109" y="197.07374" style="fill: #727ffc; stroke: #000000"/>
     <use xlink:href="#m4d28b12edd" x="375.513861" y="151.626143" style="fill: #727ffc; stroke: #000000"/>
     <use xlink:href="#m4d28b12edd" x="381.038614" y="108.815584" style="fill: #727ffc; stroke: #000000"/>
     <use xlink:href="#m4d28b12edd" x="386.563366" y="76.492933" style="fill: #727ffc; stroke: #000000"/>
     <use xlink:href="#m4d28b12edd" x="392.088119" y="55.8" style="fill: #727ffc; stroke: #000000"/>
     <use xlink:href="#m4d28b12edd" x="397.612871" y="294.040959" style="fill: #727ffc; stroke: #000000"/>
     <use xlink:href="#m4d28b12edd" x="403.137624" y="261.634546" style="fill: #727ffc; stroke: #000000"/>
     <use xlink:href="#m4d28b12edd" x="408.662376" y="307.8" style="fill: #727ffc; stroke: #000000"/>
     <use xlink:href="#m4d28b12edd" x="414.187129" y="282.489125" style="fill: #727ffc; stroke: #000000"/>
     <use xlink:href="#m4d28b12edd" x="419.711881" y="281.544229" style="fill: #727ffc; stroke: #000000"/>
     <use xlink:href="#m4d28b12edd" x="425.236634" y="276.799175" style="fill: #727ffc; stroke: #000000"/>
     <use xlink:href="#m4d28b12edd" x="430.761386" y="240.220817" style="fill: #727ffc; stroke: #000000"/>
     <use xlink:href="#m4d28b12edd" x="436.286139" y="223.691011" style="fill: #727ffc; stroke: #000000"/>
     <use xlink:href="#m4d28b12edd" x="441.810891" y="219.293497" style="fill: #727ffc; stroke: #000000"/>
     <use xlink:href="#m4d28b12edd" x="447.335644" y="307.8" style="fill: #727ffc; stroke: #000000"/>
     <use xlink:href="#m4d28b12edd" x="452.860396" y="211.771799" style="fill: #727ffc; stroke: #000000"/>
     <use xlink:href="#m4d28b12edd" x="458.385149" y="254.306089" style="fill: #727ffc; stroke: #000000"/>
     <use xlink:href="#m4d28b12edd" x="463.909901" y="248.71974" style="fill: #727ffc; stroke: #000000"/>
     <use xlink:href="#m4d28b12edd" x="469.434653" y="245.759408" style="fill: #727ffc; stroke: #000000"/>
     <use xlink:href="#m4d28b12edd" x="474.959406" y="233.311171" style="fill: #727ffc; stroke: #000000"/>
     <use xlink:href="#m4d28b12edd" x="480.484158" y="232.077516" style="fill: #727ffc; stroke: #000000"/>
     <use xlink:href="#m4d28b12edd" x="486.008911" y="234.127485" style="fill: #727ffc; stroke: #000000"/>
     <use xlink:href="#m4d28b12edd" x="491.533663" y="233.596257" style="fill: #727ffc; stroke: #000000"/>
     <use xlink:href="#m4d28b12edd" x="497.058416" y="234.039315" style="fill: #727ffc; stroke: #000000"/>
     <use xlink:href="#m4d28b12edd" x="502.583168" y="178.94731" style="fill: #727ffc; stroke: #000000"/>
     <use xlink:href="#m4d28b12edd" x="508.107921" y="173.897332" style="fill: #727ffc; stroke: #000000"/>
     <use xlink:href="#m4d28b12edd" x="513.632673" y="175.468975" style="fill: #727ffc; stroke: #000000"/>
     <use xlink:href="#m4d28b12edd" x="519.157426" y="262.282601" style="fill: #727ffc; stroke: #000000"/>
     <use xlink:href="#m4d28b12edd" x="524.682178" y="232.335416" style="fill: #727ffc; stroke: #000000"/>
     <use xlink:href="#m4d28b12edd" x="530.206931" y="195.364698" style="fill: #727ffc; stroke: #000000"/>
     <use xlink:href="#m4d28b12edd" x="535.731683" y="307.8" style="fill: #727ffc; stroke: #000000"/>
     <use xlink:href="#m4d28b12edd" x="541.256436" y="193.746765" style="fill: #727ffc; stroke: #000000"/>
     <use xlink:href="#m4d28b12edd" x="546.781188" y="119.856028" style="fill: #727ffc; stroke: #000000"/>
     <use xlink:href="#m4d28b12edd" x="552.305941" y="195.649048" style="fill: #727ffc; stroke: #000000"/>
     <use xlink:href="#m4d28b12edd" x="557.830693" y="226.383157" style="fill: #727ffc; stroke: #000000"/>
     <use xlink:href="#m4d28b12edd" x="563.355446" y="233.922488" style="fill: #727ffc; stroke: #000000"/>
     <use xlink:href="#m4d28b12edd" x="568.880198" y="184.279434" style="fill: #727ffc; stroke: #000000"/>
     <use xlink:href="#m4d28b12edd" x="574.40495" y="149.077274" style="fill: #727ffc; stroke: #000000"/>
     <use xlink:href="#m4d28b12edd" x="579.929703" y="152.310201" style="fill: #727ffc; stroke: #000000"/>
     <use xlink:href="#m4d28b12edd" x="585.454455" y="187.256665" style="fill: #727ffc; stroke: #000000"/>
     <use xlink:href="#m4d28b12edd" x="590.979208" y="186.478559" style="fill: #727ffc; stroke: #000000"/>
     <use xlink:href="#m4d28b12edd" x="596.50396" y="307.8" style="fill: #727ffc; stroke: #000000"/>
     <use xlink:href="#m4d28b12edd" x="602.028713" y="189.372763" style="fill: #727ffc; stroke: #000000"/>
     <use xlink:href="#m4d28b12edd" x="607.553465" y="256.094486" style="fill: #727ffc; stroke: #000000"/>
     <use xlink:href="#m4d28b12edd" x="613.078218" y="183.959081" style="fill: #727ffc; stroke: #000000"/>
     <use xlink:href="#m4d28b12edd" x="618.60297" y="174.68499" style="fill: #727ffc; stroke: #000000"/>
     <use xlink:href="#m4d28b12edd" x="624.127723" y="307.8" style="fill: #727ffc; stroke: #000000"/>
     <use xlink:href="#m4d28b12edd" x="629.652475" y="307.8" style="fill: #727ffc; stroke: #000000"/>
     <use xlink:href="#m4d28b12edd" x="635.177228" y="307.8" style="fill: #727ffc; stroke: #000000"/>
     <use xlink:href="#m4d28b12edd" x="640.70198" y="307.8" style="fill: #727ffc; stroke: #000000"/>
     <use xlink:href="#m4d28b12edd" x="646.226733" y="307.8" style="fill: #727ffc; stroke: #000000"/>
     <use xlink:href="#m4d28b12edd" x="651.751485" y="232.195812" style="fill: #727ffc; stroke: #000000"/>
     <use xlink:href="#m4d28b12edd" x="657.276238" y="270.832221" style="fill: #727ffc; stroke: #000000"/>
     <use xlink:href="#m4d28b12edd" x="662.80099" y="213.966516" style="fill: #727ffc; stroke: #000000"/>
     <use xlink:href="#m4d28b12edd" x="668.325743" y="182.175828" style="fill: #727ffc; stroke: #000000"/>
     <use xlink:href="#m4d28b12edd" x="673.850495" y="213.707147" style="fill: #727ffc; stroke: #000000"/>
     <use xlink:href="#m4d28b12edd" x="679.375248" y="187.7394" style="fill: #727ffc; stroke: #000000"/>
     <use xlink:href="#m4d28b12edd" x="684.9" y="262.782235" style="fill: #727ffc; stroke: #000000"/>
    </g>
   </g>
   <g id="patch_3">
    <path d="M 99 320.4 
L 99 43.2 
" style="fill: none; stroke: #000000; stroke-width: 0.8; stroke-linejoin: miter; stroke-linecap: square"/>
   </g>
   <g id="patch_4">
    <path d="M 712.8 320.4 
L 712.8 43.2 
" style="fill: none; stroke: #000000; stroke-width: 0.8; stroke-linejoin: miter; stroke-linecap: square"/>
   </g>
   <g id="patch_5">
    <path d="M 99 320.4 
L 712.8 320.4 
" style="fill: none; stroke: #000000; stroke-width: 0.8; stroke-linejoin: miter; stroke-linecap: square"/>
   </g>
   <g id="patch_6">
    <path d="M 99 43.2 
L 712.8 43.2 
" style="fill: none; stroke: #000000; stroke-width: 0.8; stroke-linejoin: miter; stroke-linecap: square"/>
   </g>
   <g id="text_32">
    <!-- Weekly distance -->
    <g transform="translate(356.912813 37.2) scale(0.12 -0.12)">
     <use xlink:href="#DejaVuSans-57"/>
     <use xlink:href="#DejaVuSans-65" x="93.001953"/>
     <use xlink:href="#DejaVuSans-65" x="154.525391"/>
     <use xlink:href="#DejaVuSans-6b" x="216.048828"/>
     <use xlink:href="#DejaVuSans-6c" x="273.958984"/>
     <use xlink:href="#DejaVuSans-79" x="301.742188"/>
     <use xlink:href="#DejaVuSans-20" x="360.921875"/>
     <use xlink:href="#DejaVuSans-64" x="392.708984"/>
     <use xlink:href="#DejaVuSans-69" x="456.185547"/>
     <use xlink:href="#DejaVuSans-73" x="483.96875"/>
     <use xlink:href="#DejaVuSans-74" x="536.068359"/>
     <use xlink:href="#DejaVuSans-61" x="575.277344"/>
     <use xlink:href="#DejaVuSans-6e" x="636.556641"/>
     <use xlink:href="#DejaVuSans-63" x="699.935547"/>
     <use xlink:href="#DejaVuSans-65" x="754.916016"/>
    </g>
   </g>
  </g>
 </g>
 <defs>
  <clipPath id="pfd73ce5990">
   <rect x="99" y="43.2" width="613.8" height="277.2"/>
  </clipPath>
 </defs>
</svg>
